<?xml version="1.0" encoding="UTF-8"?>
<svg width="500px" height="66px" viewBox="0 0 500 66" version="1.1" xmlns="http://www.w3.org/2000/svg" xmlns:xlink="http://www.w3.org/1999/xlink">
    <title>elementaru-logo-medium-white</title>
    <g id="Page-1" stroke="none" stroke-width="1" fill="none" fill-rule="evenodd">
        <g id="White-High-Res" transform="translate(-26, -23)">
            <g id="elementaru-logo-medium-white" transform="translate(26, 23)">
                <g id="Elementaru" transform="translate(54.3601, 0)" fill="#191919" fill-rule="nonzero">
                    <path d="M51.5276927,44.4587795 L53.7680272,44.4587795 L52.4144918,64.1456682 L0,64.1456682 L0,61.999704 L1.30686177,61.999704 C4.44955317,61.999704 6.47985628,61.5798414 7.3977711,60.7401163 C8.31568592,59.9003912 8.89910635,58.8351844 9.1480324,57.5444958 C9.39695845,56.2538072 9.52142148,52.9648838 9.52142148,47.6777257 L9.52142148,16.654548 C9.52142148,11.8339039 9.38917951,8.66160901 9.12469558,7.13766344 C8.86021165,5.61371787 8.2534544,4.54851102 7.30442383,3.94204288 C6.35539326,3.33557475 4.35620591,3.03234068 1.30686177,3.03234068 L1.30686177,0.886376506 L46.5336138,0.886376506 L48.0271701,16.654548 L45.8335093,16.654548 C44.8378051,12.238216 43.6165116,9.10479726 42.1696289,7.25429193 C40.7227463,5.40378659 39.0036007,4.23750172 37.0121923,3.7554373 C35.0207839,3.27337289 31.815861,3.03234068 27.3974236,3.03234068 L18.6227802,3.03234068 L18.6227802,29.5769845 L25.3437836,29.5769845 C28.4242435,29.5769845 30.5790097,29.3126265 31.808082,28.7839107 C33.0371544,28.2551949 33.8461641,27.454346 34.2351111,26.3813639 C34.624058,25.3083818 34.8185315,23.2168443 34.8185315,20.1067513 L37.0121923,20.1067513 L37.0121923,41.7529986 L34.8185315,41.7529986 C34.8185315,38.2385935 34.5229318,35.882698 33.9317324,34.6853122 C33.3405331,33.4879264 32.4770708,32.7104032 31.3413457,32.3527425 C30.2056206,31.9950818 28.2842226,31.8162514 25.5771518,31.8162514 L18.6227802,31.8162514 L18.6227802,46.7913492 C18.6227802,54.2866734 19.1050745,58.6952302 20.0696629,60.0170197 C21.0342514,61.3388092 23.632417,61.999704 27.8641599,61.999704 L32.578197,61.999704 C35.907583,61.999704 38.6457695,61.5720662 40.7927567,60.7167906 C42.9397439,59.8615151 44.9856049,58.1043125 46.9303397,55.445183 C48.8750745,52.7860535 50.4075255,49.123919 51.5276927,44.4587795 Z" id="Path"></path>
                    <path d="M71.3639875,0 L71.3639875,51.0366262 C71.3639875,55.110848 71.41844,57.6766747 71.5273452,58.7341064 C71.6362503,59.791538 72.0796499,60.6001622 72.8575438,61.1599789 C73.6354377,61.7197956 75.0200888,61.999704 77.0114973,61.999704 L78.1316645,61.999704 L78.1316645,64.1456682 L57.6886125,64.1456682 L57.6886125,61.999704 L58.9954743,61.999704 C60.8624196,61.999704 62.1926182,61.7431213 62.98607,61.229956 C63.7795218,60.7167906 64.2540371,59.993694 64.4096159,59.0606661 C64.5651947,58.1276382 64.6429841,55.4529582 64.6429841,51.0366262 L64.6429841,13.2489962 C64.6429841,9.23697622 64.2851529,6.71002565 63.5694905,5.6681445 C62.8538281,4.62626334 61.1113457,4.10532276 58.3420434,4.10532276 L58.3420434,1.95935859 C60.2401045,1.95935859 62.47266,1.74165208 65.03971,1.30623906 C67.6067599,0.870826041 69.372579,0.43541302 70.3371675,0 L71.3639875,0 Z" id="Path"></path>
                    <path d="M117.804254,38.8606121 L91.1536086,38.8606121 C91.0291455,40.6955669 90.966914,42.0640079 90.966914,42.9659348 C90.966914,49.6837357 92.0170708,54.7298616 94.1173844,58.1043125 C96.2176979,61.4787634 99.3526104,63.1659889 103.522122,63.1659889 C109.185189,63.1659889 113.199122,60.6312631 115.56392,55.5618115 L117.804254,55.5618115 C116.80855,58.7341064 114.832699,61.2144055 111.876702,63.002709 C108.920706,64.7910125 105.700225,65.6851642 102.21526,65.6851642 C98.9792213,65.6851642 95.9220982,64.8687648 93.0438908,63.235966 C90.1656833,61.6031671 87.8086647,59.2939231 85.9728351,56.3082338 C84.1370055,53.3225445 83.2190907,49.6992862 83.2190907,45.4384588 C83.2190907,39.4048783 84.9926888,34.3898534 88.539885,30.3933839 C92.0870813,26.3969144 96.5210766,24.3986796 101.841871,24.3986796 C106.851508,24.3986796 110.725419,25.9226252 113.463606,28.9705163 C116.201793,32.0184075 117.648675,35.315106 117.804254,38.8606121 Z M109.636368,36.9945563 C109.729715,36.2792349 109.776389,35.6416658 109.776389,35.0818491 C109.776389,32.3449672 108.975158,30.2223288 107.372697,28.7139336 C105.770235,27.2055385 103.802164,26.451341 101.468482,26.451341 C95.8054142,26.451341 92.4293546,29.9657461 91.3403031,36.9945563 L109.636368,36.9945563 Z" id="Shape"></path>
                    <path d="M134.840131,24.3986796 L135.306867,24.3986796 C136.209224,26.4824419 136.660402,29.1571219 136.660402,32.4227196 C138.745158,29.7480396 140.993271,27.7420296 143.404743,26.4046896 C145.816214,25.0673496 148.4066,24.3986796 151.175903,24.3986796 C154.318594,24.3986796 156.870086,25.114001 158.830379,26.5446438 C160.790672,27.9752866 162.159765,30.1212507 162.937659,32.9825363 C165.302456,30.1212507 167.729485,27.9752866 170.218746,26.5446438 C172.708006,25.114001 175.24394,24.3986796 177.826548,24.3986796 C180.782545,24.3986796 183.287363,25.0829001 185.341003,26.451341 C187.394643,27.8197819 188.639274,29.3748284 189.074894,31.1164805 C189.510515,32.8581326 189.728325,35.6727667 189.728325,39.560383 L189.728325,51.0366262 C189.728325,55.4840592 189.813893,58.1898401 189.98503,59.1539689 C190.156167,60.1180977 190.654019,60.8334191 191.478586,61.2999331 C192.303154,61.766447 193.835605,61.999704 196.075939,61.999704 L196.075939,64.1456682 L176.986423,64.1456682 L176.986423,61.999704 C179.008947,61.999704 180.432493,61.7742223 181.25706,61.3232588 C182.081628,60.8722953 182.587259,60.1880748 182.773953,59.2705974 C182.960648,58.35312 183.053995,55.6084629 183.053995,51.0366262 L183.053995,38.3007953 C183.053995,35.7194181 182.906195,33.77561 182.610596,32.4693709 C182.314996,31.1631319 181.544881,30.0434984 180.300251,29.1104705 C179.055621,28.1774426 177.437601,27.7109287 175.446193,27.7109287 C173.423669,27.7109287 171.393366,28.3951491 169.355284,29.76359 C167.317201,31.132031 165.27134,33.2002428 163.217701,35.9682256 L163.217701,51.0366262 C163.217701,55.110848 163.272153,57.6688995 163.381058,58.7107807 C163.489963,59.7526618 163.925584,60.561286 164.68792,61.1366532 C165.450256,61.7120204 166.81157,61.999704 168.771863,61.999704 L168.771863,64.1456682 L150.289104,64.1456682 L150.289104,61.999704 C152.373859,61.999704 153.828521,61.7819975 154.653089,61.3465845 C155.477656,60.9111715 155.991066,60.2425015 156.193319,59.3405745 C156.395571,58.4386475 156.496697,55.6706647 156.496697,51.0366262 L156.496697,40.4467595 C156.496697,37.0878591 156.364455,34.6542113 156.099971,33.1458162 C155.835487,31.6374211 155.034257,30.3467325 153.696279,29.2737504 C152.358302,28.2007683 150.693609,27.6642773 148.7022,27.6642773 C146.773023,27.6642773 144.804952,28.2862959 142.797985,29.5303331 C140.791019,30.7743703 138.745158,32.6404261 136.660402,35.1285005 L136.660402,51.0366262 C136.660402,55.2352517 136.722634,57.8477298 136.847097,58.8740605 C136.97156,59.9003912 137.438296,60.6779145 138.247306,61.2066303 C139.056316,61.7353461 140.503198,61.999704 142.587954,61.999704 L142.587954,64.1456682 L123.871826,64.1456682 L123.871826,61.999704 C125.925466,61.999704 127.36457,61.7742223 128.189138,61.3232588 C129.013705,60.8722953 129.519336,60.1958501 129.706031,59.2939231 C129.892725,58.3919961 129.986073,55.6395638 129.986073,51.0366262 L129.986073,39.6070344 C129.986073,35.2529042 129.916062,32.5859994 129.776041,31.6063201 C129.63602,30.6266408 129.153726,29.8879938 128.329159,29.3903789 C127.504591,28.892764 126.018814,28.6439566 123.871826,28.6439566 L123.871826,26.4979924 C128.290264,26.0625794 131.946365,25.3628084 134.840131,24.3986796 Z" id="Path"></path>
                    <path d="M236.308612,38.8606121 L209.657967,38.8606121 C209.533504,40.6955669 209.471273,42.0640079 209.471273,42.9659348 C209.471273,49.6837357 210.521429,54.7298616 212.621743,58.1043125 C214.722056,61.4787634 217.856969,63.1659889 222.02648,63.1659889 C227.689548,63.1659889 231.703481,60.6312631 234.068278,55.5618115 L236.308612,55.5618115 C235.312908,58.7341064 233.337058,61.2144055 230.381061,63.002709 C227.425064,64.7910125 224.204583,65.6851642 220.719618,65.6851642 C217.48358,65.6851642 214.426457,64.8687648 211.548249,63.235966 C208.670042,61.6031671 206.313023,59.2939231 204.477194,56.3082338 C202.641364,53.3225445 201.723449,49.6992862 201.723449,45.4384588 C201.723449,39.4048783 203.497047,34.3898534 207.044244,30.3933839 C210.59144,26.3969144 215.025435,24.3986796 220.346229,24.3986796 C225.355866,24.3986796 229.229778,25.9226252 231.967964,28.9705163 C234.706151,32.0184075 236.153034,35.315106 236.308612,38.8606121 Z M228.140726,36.9945563 C228.234074,36.2792349 228.280747,35.6416658 228.280747,35.0818491 C228.280747,32.3449672 227.479517,30.2223288 225.877055,28.7139336 C224.274594,27.2055385 222.306522,26.451341 219.97284,26.451341 C214.309773,26.451341 210.933713,29.9657461 209.844662,36.9945563 L228.140726,36.9945563 Z" id="Shape"></path>
                    <path d="M253.111121,24.3986796 L254.371309,24.3986796 C255.086972,26.3269373 255.491476,28.9549659 255.584824,32.2827654 C257.825158,29.6391863 260.174398,27.6642773 262.632542,26.3580382 C265.090687,25.0517991 267.657737,24.3986796 270.333692,24.3986796 C273.383036,24.3986796 275.880076,25.0362487 277.824811,26.3113868 C279.769545,27.5865249 281.021955,29.1493467 281.582038,30.999852 C282.142122,32.8503573 282.422164,35.548363 282.422164,39.093869 L282.422164,51.0366262 C282.422164,55.4529582 282.499953,58.1431887 282.655532,59.1073175 C282.811111,60.0714463 283.301184,60.794543 284.125751,61.2766074 C284.950319,61.7586718 286.467212,61.999704 288.676431,61.999704 L288.676431,64.1456682 L269.120178,64.1456682 L269.120178,61.999704 L270.006977,61.999704 C272.247311,61.999704 273.709752,61.6731442 274.394298,61.0200247 C275.078845,60.3669052 275.467792,59.6049324 275.561139,58.7341064 C275.654487,57.8632803 275.70116,55.2974536 275.70116,51.0366262 L275.70116,38.7206579 C275.70116,35.7038677 275.55336,33.5501283 275.257761,32.2594397 C274.962161,30.9687511 274.168709,29.8257919 272.877405,28.8305621 C271.586101,27.8353324 269.944745,27.3377175 267.953337,27.3377175 C265.681887,27.3377175 263.511563,28.0141627 261.442365,29.3670532 C259.373167,30.7199436 257.420653,32.7492793 255.584824,35.4550602 L255.584824,51.0366262 C255.584824,55.4529582 255.670392,58.1431887 255.841529,59.1073175 C256.012665,60.0714463 256.510517,60.794543 257.335085,61.2766074 C258.159652,61.7586718 259.692103,61.999704 261.932438,61.999704 L261.932438,64.1456682 L242.609553,64.1456682 L242.609553,61.999704 C244.75654,61.999704 246.250097,61.7819975 247.090222,61.3465845 C247.930348,60.9111715 248.451536,60.2502767 248.653789,59.3639002 C248.856041,58.4775237 248.957167,55.7017657 248.957167,51.0366262 L248.957167,39.6536858 C248.957167,35.2062528 248.871599,32.5082471 248.700462,31.5596687 C248.529326,30.6110904 248.031474,29.895769 247.206906,29.4137046 C246.382339,28.9316402 244.849888,28.6906079 242.609553,28.6906079 L242.609553,26.5446438 C246.032286,26.1714326 249.532809,25.4561112 253.111121,24.3986796 Z" id="Path"></path>
                    <path d="M316.960653,28.0841398 L305.432265,28.0841398 L305.432265,51.1765804 C305.432265,54.7220864 305.587844,57.1090828 305.899002,58.3375695 C306.210159,59.5660562 306.871369,60.5535108 307.882631,61.2999331 C308.893893,62.0463554 309.975166,62.4195666 311.126449,62.4195666 C313.366783,62.4195666 315.311518,61.1444284 316.960653,58.5941522 L318.45421,59.4805287 C317.489621,61.5331901 316.066075,63.0804613 314.183572,64.1223425 C312.301069,65.1642236 310.395229,65.6851642 308.466052,65.6851642 C306.225717,65.6851642 304.257646,65.0242694 302.561837,63.7024799 C300.866028,62.3806904 299.808092,60.8334191 299.38803,59.0606661 C298.967967,57.2879131 298.757936,54.1778201 298.757936,49.7303871 L298.757936,28.0841398 L293.203773,28.0841398 L293.203773,25.9381756 C295.755265,25.8759738 298.042273,24.8029917 300.064797,22.7192294 C302.087322,20.6354671 303.378626,17.7119796 303.938709,13.9487671 L305.432265,13.9487671 L305.432265,25.9381756 L316.960653,25.9381756 L316.960653,28.0841398 Z" id="Path"></path>
                    <path d="M360.693849,57.1479589 L362.420773,57.1479589 C362.140732,62.466218 359.527008,65.1253475 354.579603,65.1253475 C352.463731,65.1253475 350.791259,64.5655307 349.562187,63.4458973 C348.333115,62.3262638 347.531884,60.662364 347.158495,58.454198 C344.046919,60.662364 341.207606,62.3262638 338.640557,63.4458973 C336.073507,64.5655307 333.77872,65.1253475 331.756195,65.1253475 C329.173588,65.1253475 326.948811,64.3789252 325.081866,62.8860805 C323.21492,61.3932359 322.281448,59.4183268 322.281448,56.9613533 C322.281448,53.7579575 323.845014,50.9588738 326.972148,48.5641022 C330.099281,46.1693306 334.416593,43.8367609 339.924082,41.566393 L347.158495,38.6273551 L347.158495,36.7612993 C347.158495,34.1177202 346.987358,32.205013 346.645085,31.0231777 C346.302812,29.8413424 345.416013,28.7839107 343.984688,27.8508828 C342.553363,26.9178549 340.67086,26.451341 338.337178,26.451341 C333.669814,26.451341 331.071649,28.0063875 330.542681,31.1164805 C330.044829,34.2887754 328.737967,35.8749228 326.622096,35.8749228 C324.724034,35.8749228 323.775004,34.9729958 323.775004,33.1691419 C323.775004,31.3963889 325.035192,29.4914569 327.555568,27.454346 C330.075945,25.4172351 333.99653,24.3986796 339.317324,24.3986796 C343.269025,24.3986796 346.333927,25.0206982 348.51203,26.2647354 C350.690133,27.5087726 352.129237,28.9238649 352.829342,30.5100124 C353.529446,32.0961598 353.879498,34.5220323 353.879498,37.78763 L353.879498,53.2292417 C353.879498,56.8369496 354.066193,59.1539689 354.439582,60.1802996 C354.812971,61.2066303 355.621981,61.7197956 356.866611,61.7197956 C358.920251,61.7197956 360.195997,60.1958501 360.693849,57.1479589 Z M347.158495,40.8199707 L342.071069,42.872632 C334.043204,46.1382297 330.029271,50.2435525 330.029271,55.1886003 C330.029271,57.1479589 330.542681,58.7263311 331.569501,59.9237169 C332.596321,61.1211027 333.934298,61.7197956 335.583433,61.7197956 C337.045874,61.7197956 338.741683,61.2377312 340.67086,60.2736024 C342.600037,59.3094736 344.762582,57.8632803 347.158495,55.9350227 L347.158495,40.8199707 Z" id="Shape"></path>
                    <path d="M379.316629,34.1488212 C380.374565,31.3808384 382.09371,29.0638191 384.474066,27.1977633 C386.854421,25.3317075 389.180324,24.3986796 391.451774,24.3986796 C393.505414,24.3986796 395.123433,25.0362487 396.305832,26.3113868 C397.488231,27.5865249 398.07943,28.892764 398.07943,30.230104 C398.07943,31.132031 397.776052,31.9095542 397.169294,32.5626737 C396.562537,33.2157933 395.823538,33.542353 394.952297,33.542353 C393.396509,33.542353 392.21411,32.3916186 391.405101,30.0901498 C390.845017,28.5351033 390.004892,27.75758 388.884724,27.75758 C387.546747,27.75758 385.944285,28.6672823 384.07734,30.4866867 C382.210395,32.3060911 381.012438,34.1954726 380.48347,36.1548312 C379.954502,38.1141897 379.690018,40.8044202 379.690018,44.2255225 L379.690018,51.0366262 C379.690018,55.110848 379.744471,57.6766747 379.853376,58.7341064 C379.962281,59.791538 380.405681,60.6001622 381.183575,61.1599789 C381.961468,61.7197956 383.34612,61.999704 385.337528,61.999704 L386.64439,61.999704 L386.64439,64.1456682 L366.341359,64.1456682 L366.341359,61.999704 L367.321505,61.999704 C369.18845,61.999704 370.518649,61.7431213 371.312101,61.229956 C372.105553,60.7167906 372.580068,59.993694 372.735647,59.0606661 C372.891225,58.1276382 372.969015,55.4529582 372.969015,51.0366262 L372.969015,40.2601539 C372.969015,36.1548312 372.914562,33.5812292 372.805657,32.539348 C372.696752,31.4974669 372.253352,30.6888427 371.475459,30.1134755 C370.697565,29.5381083 369.312913,29.2504247 367.321505,29.2504247 L366.341359,29.2504247 L366.341359,27.1511119 C369.26624,26.8090017 373.093478,25.8915242 377.823073,24.3986796 C378.72543,26.8556531 379.223282,30.1057003 379.316629,34.1488212 Z" id="Path"></path>
                    <path d="M439.80566,25.9381756 L439.80566,50.9899748 C439.80566,55.1574994 439.867891,57.7699775 439.992354,58.8274091 C440.116817,59.8848408 440.575775,60.6779145 441.369227,61.2066303 C442.162678,61.7353461 443.586224,61.999704 445.639864,61.999704 L445.639864,64.1456682 C440.910269,64.20787 437.45642,64.7054849 435.278317,65.6385128 L434.718234,65.6385128 C433.722529,63.9279617 433.193562,60.9733733 433.13133,56.7747478 C431.233269,59.7293361 429.062945,61.9530526 426.620358,63.4458973 C424.177771,64.9387419 421.478479,65.6851642 418.522482,65.6851642 C415.97099,65.6851642 413.715098,65.1020218 411.754805,63.9357369 C409.794513,62.769452 408.448756,61.3465845 407.717536,59.6671343 C406.986316,57.987684 406.620705,55.4529582 406.620705,52.0629569 L406.620705,39.0472176 C406.620705,34.6308856 406.542916,31.9328799 406.387337,30.9532006 C406.231759,29.9735213 405.741685,29.2504247 404.917118,28.7839107 C404.09255,28.3173968 402.575657,28.0841398 400.366438,28.0841398 L400.366438,25.9381756 L413.341709,25.9381756 L413.341709,52.436168 C413.341709,55.0486461 413.497288,56.9458029 413.808445,58.1276382 C414.119603,59.3094736 414.913055,60.3435795 416.188801,61.229956 C417.464547,62.1163325 418.942545,62.5595207 420.622796,62.5595207 C423.018709,62.5595207 425.305717,61.7742223 427.48382,60.2036253 C429.661923,58.6330283 431.147701,56.9691286 431.941152,55.211926 C432.734604,53.4547235 433.13133,50.9433234 433.13133,47.6777257 L433.13133,39.0472176 C433.13133,34.879693 433.084656,32.3449672 432.991309,31.4430403 C432.897962,30.5411133 432.501236,29.7558148 431.801131,29.0871448 C431.101027,28.4184748 429.646365,28.0841398 427.437147,28.0841398 L426.457,28.0841398 L426.457,25.9381756 L439.80566,25.9381756 Z" id="Path"></path>
                </g>
                <circle id="Oval" fill="#A984F2" cx="18.9694224" cy="45.0169875" r="18.9694224"></circle>
            </g>
        </g>
    </g>
</svg>