<?xml version="1.0" encoding="UTF-8"?>
<svg width="500px" height="66px" viewBox="0 0 500 66" version="1.1" xmlns="http://www.w3.org/2000/svg" xmlns:xlink="http://www.w3.org/1999/xlink">
    <title>Group@1x</title>
    <g id="Page-1" stroke="none" stroke-width="1" fill="none" fill-rule="evenodd">
        <g id="Black-Medium" transform="translate(-24, -21)">
            <g id="Group" transform="translate(24, 21)">
                <g id="Elementaru" transform="translate(54.672, 0)" fill="#FFFFFF" fill-rule="nonzero">
                    <path d="M51.4916367,44.4054423 L53.7304035,44.4054423 L52.3778152,64.0687127 L0,64.0687127 L0,61.9253231 L1.30594731,61.9253231 C4.44643964,61.9253231 6.47532207,61.5059642 7.39259458,60.6672465 C8.30986709,59.8285288 8.89287928,58.7645999 9.14163115,57.4754597 C9.39038302,56.1863196 9.51475895,52.9013419 9.51475895,47.6205268 L9.51475895,16.6345676 C9.51475895,11.8197068 9.38260952,8.65121769 9.11831066,7.1291004 C8.8540118,5.6069831 8.24767913,4.54305417 7.29931263,3.93731362 C6.35094613,3.33157306 4.35315769,3.02870278 1.30594731,3.02870278 L1.30594731,0.885313121 L46.5010523,0.885313121 L47.9935635,16.6345676 L45.8014377,16.6345676 C44.8064302,12.2235338 43.5859914,9.09387425 42.1401211,7.24558897 C40.6942509,5.39730368 38.9763083,4.23241799 36.9862934,3.75093191 C34.9962784,3.26944583 31.7935981,3.02870278 27.3782525,3.02870278 L18.6097491,3.02870278 L18.6097491,29.541501 L25.3260496,29.541501 C28.4043539,29.541501 30.5576123,29.2774602 31.7858246,28.7493787 C33.014037,28.2212972 33.8224806,27.421409 34.2111554,26.3497142 C34.5998301,25.2780194 34.7941675,23.1889911 34.7941675,20.0826292 L36.9862934,20.0826292 L36.9862934,41.7029076 L34.7941675,41.7029076 C34.7941675,38.1927187 34.4987747,35.8396496 33.907989,34.6437003 C33.3172033,33.447751 32.4543453,32.6711605 31.3194149,32.3139289 C30.1844845,31.9566973 28.264431,31.7780815 25.5592544,31.7780815 L18.6097491,31.7780815 L18.6097491,46.7352137 C18.6097491,54.2215457 19.0917059,58.6248136 20.0556194,59.9450174 C21.0195329,61.2652212 23.6158805,61.9253231 27.8446622,61.9253231 L32.5554007,61.9253231 C35.882457,61.9253231 38.6187275,61.4981983 40.7642124,60.6439488 C42.9096972,59.7896993 44.9541267,58.0346049 46.8975006,55.3786655 C48.8408746,52.7227261 50.3722533,49.0649851 51.4916367,44.4054423 Z" id="Path"></path>
                    <path d="M71.3140512,0 L71.3140512,50.9753976 C71.3140512,55.0447316 71.3684656,57.6074801 71.4772946,58.6636431 C71.5861235,59.7198062 72.0292128,60.5274602 72.8065624,61.0866054 C73.583912,61.6457505 74.9675942,61.9253231 76.9576092,61.9253231 L78.0769926,61.9253231 L78.0769926,64.0687127 L57.6482454,64.0687127 L57.6482454,61.9253231 L58.9541927,61.9253231 C60.8198317,61.9253231 62.1490995,61.6690482 62.9419961,61.1564985 C63.7348927,60.6439488 64.2090759,59.9217197 64.3645459,58.9898111 C64.5200158,58.0579026 64.5977507,55.3864314 64.5977507,50.9753976 L64.5977507,13.2331014 C64.5977507,9.22589463 64.2401699,6.70197565 63.5250083,5.66134443 C62.8098467,4.62071322 61.0685836,4.10039761 58.3012191,4.10039761 L58.3012191,1.95700795 C60.1979521,1.95700795 62.4289454,1.73956262 64.994199,1.30467197 C67.5594527,0.869781312 69.3240362,0.434890656 70.2879497,0 L71.3140512,0 Z" id="Path"></path>
                    <path d="M117.721822,38.8139911 L91.0898247,38.8139911 C90.9654488,40.6467445 90.9032608,42.0135437 90.9032608,42.9143887 C90.9032608,49.6241302 91.9526827,54.6642023 94.0515266,58.0346049 C96.1503705,61.4050075 99.2830893,63.0902087 103.449683,63.0902087 C109.108788,63.0902087 113.119912,60.5585239 115.483055,55.4951541 L117.721822,55.4951541 C116.726814,58.6636431 114.752346,61.1409667 111.798418,62.9271248 C108.844489,64.7132828 105.626262,65.6063618 102.143736,65.6063618 C98.9099615,65.6063618 95.8549777,64.7909418 92.9787842,63.1601019 C90.1025907,61.5292619 87.7472215,59.2227883 85.9126764,56.2406809 C84.0781314,53.2585736 83.1608589,49.639662 83.1608589,45.3839463 C83.1608589,39.3576044 84.933216,34.3485959 88.4779301,30.356921 C92.0226442,26.365246 96.4535368,24.3694085 101.770608,24.3694085 C106.776739,24.3694085 110.64794,25.8915258 113.384211,28.9357604 C116.120481,31.979995 117.566352,35.2727386 117.721822,38.8139911 Z M109.559651,36.950174 C109.652933,36.2357107 109.699574,35.5989066 109.699574,35.0397614 C109.699574,32.306163 108.898904,30.1860711 107.297564,28.6794856 C105.696223,27.1729001 103.729529,26.4196074 101.39748,26.4196074 C95.7383752,26.4196074 92.364678,29.9297962 91.2763886,36.950174 L109.559651,36.950174 Z" id="Shape"></path>
                    <path d="M134.745778,24.3694085 L135.212187,24.3694085 C136.113913,26.450671 136.564776,29.1221421 136.564776,32.3838221 C138.648072,29.7123509 140.894613,27.7087475 143.304396,26.3730119 C145.71418,25.0372763 148.302754,24.3694085 151.070119,24.3694085 C154.210611,24.3694085 156.760318,25.0838718 158.719239,26.5127982 C160.67816,27.9417247 162.046295,30.0851143 162.823645,32.9429672 C165.186787,30.0851143 167.612118,27.9417247 170.099637,26.5127982 C172.587155,25.0838718 175.121315,24.3694085 177.702116,24.3694085 C180.656044,24.3694085 183.15911,25.0528082 185.211313,26.4196074 C187.263516,27.7864066 188.507275,29.3395875 188.942591,31.0791501 C189.377907,32.8187127 189.595564,35.6299702 189.595564,39.5129225 L189.595564,50.9753976 C189.595564,55.417495 189.681073,58.1200298 189.85209,59.083002 C190.023107,60.0459742 190.52061,60.7604374 191.344601,61.2263917 C192.168592,61.6923459 193.69997,61.9253231 195.938737,61.9253231 L195.938737,64.0687127 L176.862578,64.0687127 L176.862578,61.9253231 C178.883687,61.9253231 180.306237,61.7001118 181.130227,61.2496894 C181.954218,60.7992669 182.459495,60.1158673 182.646059,59.1994906 C182.832623,58.2831138 182.925905,55.5417495 182.925905,50.9753976 L182.925905,38.2548459 C182.925905,35.6765656 182.778209,33.7350895 182.482816,32.4304175 C182.187423,31.1257455 181.417847,30.0074553 180.174087,29.0755467 C178.930328,28.1436382 177.313441,27.6776839 175.323426,27.6776839 C173.302317,27.6776839 171.273435,28.3610835 169.236779,29.7278827 C167.200123,31.0946819 165.155693,33.1604125 163.10349,35.9250746 L163.10349,50.9753976 C163.10349,55.0447316 163.157905,57.5997142 163.266734,58.6403454 C163.375563,59.6809766 163.810879,60.4886307 164.572681,61.0633077 C165.334484,61.6379846 166.694846,61.9253231 168.653767,61.9253231 L168.653767,64.0687127 L150.18394,64.0687127 L150.18394,61.9253231 C152.267237,61.9253231 153.720881,61.7078777 154.544872,61.2729871 C155.368862,60.8380964 155.881913,60.1702286 156.084024,59.2693837 C156.286135,58.3685388 156.38719,55.6038767 156.38719,50.9753976 L156.38719,40.3982356 C156.38719,37.0433648 156.255041,34.6126367 155.990742,33.1060512 C155.726443,31.5994657 154.925773,30.3103255 153.588732,29.2386307 C152.25169,28.1669359 150.588162,27.6310885 148.598147,27.6310885 C146.67032,27.6310885 144.703626,28.2523608 142.698064,29.4949056 C140.692502,30.7374503 138.648072,32.6012674 136.564776,35.0863569 L136.564776,50.9753976 C136.564776,55.1689861 136.626964,57.77833 136.751339,58.8034294 C136.875715,59.8285288 137.342125,60.6051193 138.150569,61.1332008 C138.959012,61.6612823 140.404883,61.9253231 142.488179,61.9253231 L142.488179,64.0687127 L123.785148,64.0687127 L123.785148,61.9253231 C125.837351,61.9253231 127.275448,61.7001118 128.099439,61.2496894 C128.923429,60.7992669 129.428706,60.1236332 129.61527,59.2227883 C129.801834,58.3219433 129.895116,55.5728131 129.895116,50.9753976 L129.895116,39.5595179 C129.895116,35.2106113 129.825155,32.5469061 129.685232,31.5684021 C129.545309,30.5898981 129.063352,29.8521372 128.239361,29.3551193 C127.415371,28.8581014 125.930633,28.6095924 123.785148,28.6095924 L123.785148,26.4662028 C128.200494,26.0313121 131.854037,25.3323807 134.745778,24.3694085 Z" id="Path"></path>
                    <path d="M236.143258,38.8139911 L209.511261,38.8139911 C209.386885,40.6467445 209.324697,42.0135437 209.324697,42.9143887 C209.324697,49.6241302 210.374119,54.6642023 212.472963,58.0346049 C214.571807,61.4050075 217.704526,63.0902087 221.871119,63.0902087 C227.530224,63.0902087 231.541348,60.5585239 233.904491,55.4951541 L236.143258,55.4951541 C235.14825,58.6636431 233.173782,61.1409667 230.219854,62.9271248 C227.265925,64.7132828 224.047698,65.6063618 220.565172,65.6063618 C217.331398,65.6063618 214.276414,64.7909418 211.40022,63.1601019 C208.524027,61.5292619 206.168658,59.2227883 204.334113,56.2406809 C202.499568,53.2585736 201.582295,49.639662 201.582295,45.3839463 C201.582295,39.3576044 203.354652,34.3485959 206.899366,30.356921 C210.44408,26.365246 214.874973,24.3694085 220.192044,24.3694085 C225.198176,24.3694085 229.069377,25.8915258 231.805647,28.9357604 C234.541918,31.979995 235.987788,35.2727386 236.143258,38.8139911 Z M227.981087,36.950174 C228.074369,36.2357107 228.12101,35.5989066 228.12101,35.0397614 C228.12101,32.306163 227.32034,30.1860711 225.719,28.6794856 C224.11766,27.1729001 222.150965,26.4196074 219.818916,26.4196074 C214.159811,26.4196074 210.786114,29.9297962 209.697825,36.950174 L227.981087,36.950174 Z" id="Shape"></path>
                    <path d="M252.934009,24.3694085 L254.193315,24.3694085 C254.908477,26.2953529 255.312699,28.9202286 255.405981,32.2440358 C257.644747,29.6036282 259.992343,27.6310885 262.448768,26.3264165 C264.905193,25.0217445 267.470446,24.3694085 270.144529,24.3694085 C273.191739,24.3694085 275.687031,25.0062127 277.630405,26.2798211 C279.573779,27.5534294 280.825312,29.1143762 281.385004,30.9626615 C281.944695,32.8109468 282.224541,35.5057157 282.224541,39.0469682 L282.224541,50.9753976 C282.224541,55.3864314 282.302276,58.0734344 282.457746,59.0364066 C282.613216,59.9993787 283.102946,60.7216079 283.926937,61.2030939 C284.750927,61.68458 286.266759,61.9253231 288.474432,61.9253231 L288.474432,64.0687127 L268.931863,64.0687127 L268.931863,61.9253231 L269.818042,61.9253231 C272.056809,61.9253231 273.518226,61.5991551 274.202294,60.9468191 C274.886361,60.2944831 275.275036,59.5334245 275.368318,58.6636431 C275.4616,57.7938618 275.508241,55.2311133 275.508241,50.9753976 L275.508241,38.6742048 C275.508241,35.6610338 275.360544,33.5098782 275.065152,32.2207381 C274.769759,30.9315979 273.976862,29.7900099 272.686462,28.7959742 C271.396062,27.8019384 269.755854,27.3049205 267.765839,27.3049205 C265.495978,27.3049205 263.327173,27.9805542 261.259423,29.3318216 C259.191673,30.683089 257.240526,32.7099901 255.405981,35.4125249 L255.405981,50.9753976 C255.405981,55.3864314 255.491489,58.0734344 255.662506,59.0364066 C255.833523,59.9993787 256.331027,60.7216079 257.155017,61.2030939 C257.979008,61.68458 259.510386,61.9253231 261.749153,61.9253231 L261.749153,64.0687127 L242.439789,64.0687127 L242.439789,61.9253231 C244.585274,61.9253231 246.077785,61.7078777 246.917323,61.2729871 C247.756861,60.8380964 248.277685,60.1779945 248.479796,59.2926814 C248.681907,58.4073683 248.782962,55.6349404 248.782962,50.9753976 L248.782962,39.6061133 C248.782962,35.1640159 248.697454,32.469247 248.526437,31.5218067 C248.35542,30.5743663 247.857916,29.8599031 247.033925,29.378417 C246.209935,28.8969309 244.678556,28.6561879 242.439789,28.6561879 L242.439789,26.5127982 C245.860128,26.1400348 249.358201,25.4255716 252.934009,24.3694085 Z" id="Path"></path>
                    <path d="M316.738863,28.0504473 L305.218542,28.0504473 L305.218542,51.1151839 C305.218542,54.6564364 305.374012,57.0405691 305.684952,58.267582 C305.995892,59.4945949 306.656639,60.4808648 307.667193,61.2263917 C308.677748,61.9719185 309.758264,62.3446819 310.908741,62.3446819 C313.147508,62.3446819 315.090882,61.0710736 316.738863,58.5238569 L318.231374,59.40917 C317.267461,61.4593688 315.844911,63.0047838 313.963725,64.045415 C312.082539,65.0860462 310.178032,65.6063618 308.250206,65.6063618 C306.011439,65.6063618 304.044744,64.9462599 302.350122,63.6260562 C300.6555,62.3058524 299.598305,60.7604374 299.178536,58.9898111 C298.758767,57.2191849 298.548883,54.1128231 298.548883,49.6707256 L298.548883,28.0504473 L292.998607,28.0504473 L292.998607,25.9070577 C295.548313,25.8449304 297.833721,24.7732356 299.85483,22.6919732 C301.875939,20.6107107 303.166339,17.6907306 303.726031,13.9320328 L305.218542,13.9320328 L305.218542,25.9070577 L316.738863,25.9070577 L316.738863,28.0504473 Z" id="Path"></path>
                    <path d="M360.441457,57.0793986 L362.167173,57.0793986 C361.887327,62.3912773 359.275432,65.0472167 354.331489,65.0472167 C352.217098,65.0472167 350.545797,64.4880716 349.317584,63.3697813 C348.089372,62.2514911 347.288702,60.5895875 346.915574,58.3840706 C343.806176,60.5895875 340.96885,62.2514911 338.403596,63.3697813 C335.838342,64.4880716 333.545161,65.0472167 331.524052,65.0472167 C328.943252,65.0472167 326.720032,64.3016899 324.854393,62.8106362 C322.988754,61.3195825 322.055934,59.3470427 322.055934,56.8930169 C322.055934,53.6934642 323.618407,50.8977386 326.743352,48.50584 C329.868298,46.1139414 334.182588,43.78417 339.686223,41.5165258 L346.915574,38.5810139 L346.915574,36.7171968 C346.915574,34.0767893 346.744557,32.1663767 346.402523,30.9859592 C346.060489,29.8055417 345.174311,28.7493787 343.743988,27.8174702 C342.313664,26.8855616 340.432478,26.4196074 338.10043,26.4196074 C333.436332,26.4196074 330.839985,27.9727883 330.311387,31.0791501 C329.813883,34.2476392 328.507936,35.8318837 326.393545,35.8318837 C324.496812,35.8318837 323.548445,34.9310388 323.548445,33.1293489 C323.548445,31.3587227 324.807752,29.456076 327.326364,27.421409 C329.844977,25.386742 333.762819,24.3694085 339.07989,24.3694085 C343.028826,24.3694085 346.091583,24.9906809 348.268162,26.2332256 C350.444741,27.4757704 351.882838,28.889165 352.582452,30.4734095 C353.282067,32.0576541 353.631874,34.4806163 353.631874,37.7422962 L353.631874,53.1653827 C353.631874,56.7687624 353.818438,59.083002 354.191566,60.1081014 C354.564694,61.1332008 355.373138,61.6457505 356.616897,61.6457505 C358.6691,61.6457505 359.943953,60.1236332 360.441457,57.0793986 Z M346.915574,40.770999 L341.831708,42.8211978 C333.80946,46.0828777 329.798336,50.1832753 329.798336,55.1223907 C329.798336,57.0793986 330.311387,58.6558772 331.337488,59.8518265 C332.36359,61.0477758 333.700631,61.6457505 335.348612,61.6457505 C336.810029,61.6457505 338.504651,61.1642644 340.432478,60.2012922 C342.360305,59.2383201 344.521337,57.7938618 346.915574,55.8679175 L346.915574,40.770999 Z" id="Shape"></path>
                    <path d="M379.051206,34.1078529 C380.108401,31.3431909 381.826344,29.0289513 384.205034,27.1651342 C386.583723,25.3013171 388.907999,24.3694085 391.17786,24.3694085 C393.230062,24.3694085 394.84695,25.0062127 396.028521,26.2798211 C397.210092,27.5534294 397.800878,28.8581014 397.800878,30.193837 C397.800878,31.0946819 397.497712,31.8712724 396.891379,32.5236083 C396.285046,33.1759443 395.546564,33.5021123 394.675933,33.5021123 C393.121233,33.5021123 391.939662,32.3527584 391.131219,30.0540507 C390.571527,28.5008698 389.731989,27.7242793 388.612606,27.7242793 C387.275565,27.7242793 385.674224,28.6328902 383.808585,30.4501118 C381.942946,32.2673335 380.745828,34.1544483 380.21723,36.1114563 C379.688633,38.0684642 379.424334,40.7554672 379.424334,44.1724652 L379.424334,50.9753976 C379.424334,55.0447316 379.478748,57.6074801 379.587577,58.6636431 C379.696406,59.7198062 380.139495,60.5274602 380.916845,61.0866054 C381.694195,61.6457505 383.077877,61.9253231 385.067892,61.9253231 L386.373839,61.9253231 L386.373839,64.0687127 L366.085015,64.0687127 L366.085015,61.9253231 L367.064475,61.9253231 C368.930114,61.9253231 370.259382,61.6690482 371.052279,61.1564985 C371.845175,60.6439488 372.319359,59.9217197 372.474828,58.9898111 C372.630298,58.0579026 372.708033,55.3864314 372.708033,50.9753976 L372.708033,40.2118539 C372.708033,36.1114563 372.653619,33.5409418 372.54479,32.5003106 C372.435961,31.4596794 371.992872,30.6520253 371.215522,30.0773484 C370.438173,29.5026715 369.05449,29.215333 367.064475,29.215333 L366.085015,29.215333 L366.085015,27.1185388 C369.007849,26.776839 372.832409,25.8604622 377.558695,24.3694085 C378.46042,26.8234344 378.957924,30.0695825 379.051206,34.1078529 Z" id="Path"></path>
                    <path d="M439.49791,25.9070577 L439.49791,50.9288022 C439.49791,55.091327 439.560098,57.700671 439.684474,58.756834 C439.80885,59.812997 440.267486,60.6051193 441.060383,61.1332008 C441.853279,61.6612823 443.275829,61.9253231 445.328032,61.9253231 L445.328032,64.0687127 C440.601746,64.13084 437.150314,64.6278579 434.973735,65.5597664 L434.414044,65.5597664 C433.419036,63.8512674 432.890438,60.9002237 432.82825,56.7066352 C430.931517,59.6576789 428.762712,61.8787276 426.321834,63.3697813 C423.880957,64.860835 421.183554,65.6063618 418.229625,65.6063618 C415.679919,65.6063618 413.425605,65.023919 411.466684,63.8590333 C409.507763,62.6941476 408.162948,61.2729871 407.432239,59.5955517 C406.701531,57.9181163 406.336176,55.3864314 406.336176,52.000497 L406.336176,39.0003728 C406.336176,34.589339 406.258442,31.8945701 406.102972,30.9160661 C405.947502,29.9375621 405.457771,29.215333 404.633781,28.7493787 C403.80979,28.2834245 402.293959,28.0504473 400.086286,28.0504473 L400.086286,25.9070577 L413.052477,25.9070577 L413.052477,52.3732604 C413.052477,54.9826044 413.207947,56.8774851 413.518887,58.0579026 C413.829827,59.2383201 414.622723,60.2711854 415.897576,61.1564985 C417.17243,62.0418116 418.649394,62.4844682 420.328469,62.4844682 C422.722706,62.4844682 425.008114,61.7001118 427.184692,60.1313991 C429.361271,58.5626864 430.846009,56.9007828 431.638906,55.1456884 C432.431802,53.3905939 432.82825,50.8822068 432.82825,47.6205268 L432.82825,39.0003728 C432.82825,34.8378479 432.781609,32.306163 432.688328,31.4053181 C432.595046,30.5044732 432.198597,29.7201168 431.498983,29.052249 C430.799368,28.3843812 429.345724,28.0504473 427.138051,28.0504473 L426.158591,28.0504473 L426.158591,25.9070577 L439.49791,25.9070577 Z" id="Path"></path>
                </g>
                <circle id="Oval" fill="#A984F2" cx="18.8866799" cy="44.7316103" r="18.8866799"></circle>
            </g>
        </g>
    </g>
</svg>