<?xml version="1.0" encoding="UTF-8"?>
<svg width="500px" height="66px" viewBox="0 0 500 66" version="1.1" xmlns="http://www.w3.org/2000/svg" xmlns:xlink="http://www.w3.org/1999/xlink">
    <title>elementaru-logo-medium-white</title>
    <g id="Page-1" stroke="none" stroke-width="1" fill="none" fill-rule="evenodd">
        <g id="White-High-Res" transform="translate(-26, -23)">
            <g id="elementaru-logo-medium-white" transform="translate(26, 23)">
                <g id="Elementaru" transform="translate(54.3601, 0)" fill="#191919" fill-rule="nonzero">
                    <path d="M51.5276927,44.671875 L53.7680272,44.671875 L52.4144918,64.453125 L0,64.453125 L0,62.296875 L1.30686177,62.296875 C4.44955317,62.296875 6.47985628,61.875 7.3977711,61.03125 C8.31568592,60.1875 8.89910635,59.1171875 9.1480324,57.8203125 C9.39695845,56.5234375 9.52142148,53.21875 9.52142148,47.90625 L9.52142148,16.734375 C9.52142148,11.890625 9.38917951,8.703125 9.12469558,7.171875 C8.86021165,5.640625 8.2534544,4.5703125 7.30442383,3.9609375 C6.35539326,3.3515625 4.35620591,3.046875 1.30686177,3.046875 L1.30686177,0.890625 L46.5336138,0.890625 L48.0271701,16.734375 L45.8335093,16.734375 C44.8378051,12.296875 43.6165116,9.1484375 42.1696289,7.2890625 C40.7227463,5.4296875 39.0036007,4.2578125 37.0121923,3.7734375 C35.0207839,3.2890625 31.815861,3.046875 27.3974236,3.046875 L18.6227802,3.046875 L18.6227802,29.71875 L25.3437836,29.71875 C28.4242435,29.71875 30.5790097,29.453125 31.808082,28.921875 C33.0371544,28.390625 33.8461641,27.5859375 34.2351111,26.5078125 C34.624058,25.4296875 34.8185315,23.328125 34.8185315,20.203125 L37.0121923,20.203125 L37.0121923,41.953125 L34.8185315,41.953125 C34.8185315,38.421875 34.5229318,36.0546875 33.9317324,34.8515625 C33.3405331,33.6484375 32.4770708,32.8671875 31.3413457,32.5078125 C30.2056206,32.1484375 28.2842226,31.96875 25.5771518,31.96875 L18.6227802,31.96875 L18.6227802,47.015625 C18.6227802,54.546875 19.1050745,58.9765625 20.0696629,60.3046875 C21.0342514,61.6328125 23.632417,62.296875 27.8641599,62.296875 L32.578197,62.296875 C35.907583,62.296875 38.6457695,61.8671875 40.7927567,61.0078125 C42.9397439,60.1484375 44.9856049,58.3828125 46.9303397,55.7109375 C48.8750745,53.0390625 50.4075255,49.359375 51.5276927,44.671875 Z" id="Path"></path>
                    <path d="M71.3639875,0 L71.3639875,51.28125 C71.3639875,55.375 71.41844,57.953125 71.5273452,59.015625 C71.6362503,60.078125 72.0796499,60.890625 72.8575438,61.453125 C73.6354377,62.015625 75.0200888,62.296875 77.0114973,62.296875 L78.1316645,62.296875 L78.1316645,64.453125 L57.6886125,64.453125 L57.6886125,62.296875 L58.9954743,62.296875 C60.8624196,62.296875 62.1926182,62.0390625 62.98607,61.5234375 C63.7795218,61.0078125 64.2540371,60.28125 64.4096159,59.34375 C64.5651947,58.40625 64.6429841,55.71875 64.6429841,51.28125 L64.6429841,13.3125 C64.6429841,9.28125 64.2851529,6.7421875 63.5694905,5.6953125 C62.8538281,4.6484375 61.1113457,4.125 58.3420434,4.125 L58.3420434,1.96875 C60.2401045,1.96875 62.47266,1.75 65.03971,1.3125 C67.6067599,0.875 69.372579,0.4375 70.3371675,0 L71.3639875,0 Z" id="Path"></path>
                    <path d="M117.804254,39.046875 L91.1536086,39.046875 C91.0291455,40.890625 90.966914,42.265625 90.966914,43.171875 C90.966914,49.921875 92.0170708,54.9921875 94.1173844,58.3828125 C96.2176979,61.7734375 99.3526104,63.46875 103.522122,63.46875 C109.185189,63.46875 113.199122,60.921875 115.56392,55.828125 L117.804254,55.828125 C116.80855,59.015625 114.832699,61.5078125 111.876702,63.3046875 C108.920706,65.1015625 105.700225,66 102.21526,66 C98.9792213,66 95.9220982,65.1796875 93.0438908,63.5390625 C90.1656833,61.8984375 87.8086647,59.578125 85.9728351,56.578125 C84.1370055,53.578125 83.2190907,49.9375 83.2190907,45.65625 C83.2190907,39.59375 84.9926888,34.5546875 88.539885,30.5390625 C92.0870813,26.5234375 96.5210766,24.515625 101.841871,24.515625 C106.851508,24.515625 110.725419,26.046875 113.463606,29.109375 C116.201793,32.171875 117.648675,35.484375 117.804254,39.046875 Z M109.636368,37.171875 C109.729715,36.453125 109.776389,35.8125 109.776389,35.25 C109.776389,32.5 108.975158,30.3671875 107.372697,28.8515625 C105.770235,27.3359375 103.802164,26.578125 101.468482,26.578125 C95.8054142,26.578125 92.4293546,30.109375 91.3403031,37.171875 L109.636368,37.171875 Z" id="Shape"></path>
                    <path d="M134.840131,24.515625 L135.306867,24.515625 C136.209224,26.609375 136.660402,29.296875 136.660402,32.578125 C138.745158,29.890625 140.993271,27.875 143.404743,26.53125 C145.816214,25.1875 148.4066,24.515625 151.175903,24.515625 C154.318594,24.515625 156.870086,25.234375 158.830379,26.671875 C160.790672,28.109375 162.159765,30.265625 162.937659,33.140625 C165.302456,30.265625 167.729485,28.109375 170.218746,26.671875 C172.708006,25.234375 175.24394,24.515625 177.826548,24.515625 C180.782545,24.515625 183.287363,25.203125 185.341003,26.578125 C187.394643,27.953125 188.639274,29.515625 189.074894,31.265625 C189.510515,33.015625 189.728325,35.84375 189.728325,39.75 L189.728325,51.28125 C189.728325,55.75 189.813893,58.46875 189.98503,59.4375 C190.156167,60.40625 190.654019,61.125 191.478586,61.59375 C192.303154,62.0625 193.835605,62.296875 196.075939,62.296875 L196.075939,64.453125 L176.986423,64.453125 L176.986423,62.296875 C179.008947,62.296875 180.432493,62.0703125 181.25706,61.6171875 C182.081628,61.1640625 182.587259,60.4765625 182.773953,59.5546875 C182.960648,58.6328125 183.053995,55.875 183.053995,51.28125 L183.053995,38.484375 C183.053995,35.890625 182.906195,33.9375 182.610596,32.625 C182.314996,31.3125 181.544881,30.1875 180.300251,29.25 C179.055621,28.3125 177.437601,27.84375 175.446193,27.84375 C173.423669,27.84375 171.393366,28.53125 169.355284,29.90625 C167.317201,31.28125 165.27134,33.359375 163.217701,36.140625 L163.217701,51.28125 C163.217701,55.375 163.272153,57.9453125 163.381058,58.9921875 C163.489963,60.0390625 163.925584,60.8515625 164.68792,61.4296875 C165.450256,62.0078125 166.81157,62.296875 168.771863,62.296875 L168.771863,64.453125 L150.289104,64.453125 L150.289104,62.296875 C152.373859,62.296875 153.828521,62.078125 154.653089,61.640625 C155.477656,61.203125 155.991066,60.53125 156.193319,59.625 C156.395571,58.71875 156.496697,55.9375 156.496697,51.28125 L156.496697,40.640625 C156.496697,37.265625 156.364455,34.8203125 156.099971,33.3046875 C155.835487,31.7890625 155.034257,30.4921875 153.696279,29.4140625 C152.358302,28.3359375 150.693609,27.796875 148.7022,27.796875 C146.773023,27.796875 144.804952,28.421875 142.797985,29.671875 C140.791019,30.921875 138.745158,32.796875 136.660402,35.296875 L136.660402,51.28125 C136.660402,55.5 136.722634,58.125 136.847097,59.15625 C136.97156,60.1875 137.438296,60.96875 138.247306,61.5 C139.056316,62.03125 140.503198,62.296875 142.587954,62.296875 L142.587954,64.453125 L123.871826,64.453125 L123.871826,62.296875 C125.925466,62.296875 127.36457,62.0703125 128.189138,61.6171875 C129.013705,61.1640625 129.519336,60.484375 129.706031,59.578125 C129.892725,58.671875 129.986073,55.90625 129.986073,51.28125 L129.986073,39.796875 C129.986073,35.421875 129.916062,32.7421875 129.776041,31.7578125 C129.63602,30.7734375 129.153726,30.03125 128.329159,29.53125 C127.504591,29.03125 126.018814,28.78125 123.871826,28.78125 L123.871826,26.625 C128.290264,26.1875 131.946365,25.484375 134.840131,24.515625 Z" id="Path"></path>
                    <path d="M236.308612,39.046875 L209.657967,39.046875 C209.533504,40.890625 209.471273,42.265625 209.471273,43.171875 C209.471273,49.921875 210.521429,54.9921875 212.621743,58.3828125 C214.722056,61.7734375 217.856969,63.46875 222.02648,63.46875 C227.689548,63.46875 231.703481,60.921875 234.068278,55.828125 L236.308612,55.828125 C235.312908,59.015625 233.337058,61.5078125 230.381061,63.3046875 C227.425064,65.1015625 224.204583,66 220.719618,66 C217.48358,66 214.426457,65.1796875 211.548249,63.5390625 C208.670042,61.8984375 206.313023,59.578125 204.477194,56.578125 C202.641364,53.578125 201.723449,49.9375 201.723449,45.65625 C201.723449,39.59375 203.497047,34.5546875 207.044244,30.5390625 C210.59144,26.5234375 215.025435,24.515625 220.346229,24.515625 C225.355866,24.515625 229.229778,26.046875 231.967964,29.109375 C234.706151,32.171875 236.153034,35.484375 236.308612,39.046875 Z M228.140726,37.171875 C228.234074,36.453125 228.280747,35.8125 228.280747,35.25 C228.280747,32.5 227.479517,30.3671875 225.877055,28.8515625 C224.274594,27.3359375 222.306522,26.578125 219.97284,26.578125 C214.309773,26.578125 210.933713,30.109375 209.844662,37.171875 L228.140726,37.171875 Z" id="Shape"></path>
                    <path d="M253.111121,24.515625 L254.371309,24.515625 C255.086972,26.453125 255.491476,29.09375 255.584824,32.4375 C257.825158,29.78125 260.174398,27.796875 262.632542,26.484375 C265.090687,25.171875 267.657737,24.515625 270.333692,24.515625 C273.383036,24.515625 275.880076,25.15625 277.824811,26.4375 C279.769545,27.71875 281.021955,29.2890625 281.582038,31.1484375 C282.142122,33.0078125 282.422164,35.71875 282.422164,39.28125 L282.422164,51.28125 C282.422164,55.71875 282.499953,58.421875 282.655532,59.390625 C282.811111,60.359375 283.301184,61.0859375 284.125751,61.5703125 C284.950319,62.0546875 286.467212,62.296875 288.676431,62.296875 L288.676431,64.453125 L269.120178,64.453125 L269.120178,62.296875 L270.006977,62.296875 C272.247311,62.296875 273.709752,61.96875 274.394298,61.3125 C275.078845,60.65625 275.467792,59.890625 275.561139,59.015625 C275.654487,58.140625 275.70116,55.5625 275.70116,51.28125 L275.70116,38.90625 C275.70116,35.875 275.55336,33.7109375 275.257761,32.4140625 C274.962161,31.1171875 274.168709,29.96875 272.877405,28.96875 C271.586101,27.96875 269.944745,27.46875 267.953337,27.46875 C265.681887,27.46875 263.511563,28.1484375 261.442365,29.5078125 C259.373167,30.8671875 257.420653,32.90625 255.584824,35.625 L255.584824,51.28125 C255.584824,55.71875 255.670392,58.421875 255.841529,59.390625 C256.012665,60.359375 256.510517,61.0859375 257.335085,61.5703125 C258.159652,62.0546875 259.692103,62.296875 261.932438,62.296875 L261.932438,64.453125 L242.609553,64.453125 L242.609553,62.296875 C244.75654,62.296875 246.250097,62.078125 247.090222,61.640625 C247.930348,61.203125 248.451536,60.5390625 248.653789,59.6484375 C248.856041,58.7578125 248.957167,55.96875 248.957167,51.28125 L248.957167,39.84375 C248.957167,35.375 248.871599,32.6640625 248.700462,31.7109375 C248.529326,30.7578125 248.031474,30.0390625 247.206906,29.5546875 C246.382339,29.0703125 244.849888,28.828125 242.609553,28.828125 L242.609553,26.671875 C246.032286,26.296875 249.532809,25.578125 253.111121,24.515625 Z" id="Path"></path>
                    <path d="M316.960653,28.21875 L305.432265,28.21875 L305.432265,51.421875 C305.432265,54.984375 305.587844,57.3828125 305.899002,58.6171875 C306.210159,59.8515625 306.871369,60.84375 307.882631,61.59375 C308.893893,62.34375 309.975166,62.71875 311.126449,62.71875 C313.366783,62.71875 315.311518,61.4375 316.960653,58.875 L318.45421,59.765625 C317.489621,61.828125 316.066075,63.3828125 314.183572,64.4296875 C312.301069,65.4765625 310.395229,66 308.466052,66 C306.225717,66 304.257646,65.3359375 302.561837,64.0078125 C300.866028,62.6796875 299.808092,61.125 299.38803,59.34375 C298.967967,57.5625 298.757936,54.4375 298.757936,49.96875 L298.757936,28.21875 L293.203773,28.21875 L293.203773,26.0625 C295.755265,26 298.042273,24.921875 300.064797,22.828125 C302.087322,20.734375 303.378626,17.796875 303.938709,14.015625 L305.432265,14.015625 L305.432265,26.0625 L316.960653,26.0625 L316.960653,28.21875 Z" id="Path"></path>
                    <path d="M360.693849,57.421875 L362.420773,57.421875 C362.140732,62.765625 359.527008,65.4375 354.579603,65.4375 C352.463731,65.4375 350.791259,64.875 349.562187,63.75 C348.333115,62.625 347.531884,60.953125 347.158495,58.734375 C344.046919,60.953125 341.207606,62.625 338.640557,63.75 C336.073507,64.875 333.77872,65.4375 331.756195,65.4375 C329.173588,65.4375 326.948811,64.6875 325.081866,63.1875 C323.21492,61.6875 322.281448,59.703125 322.281448,57.234375 C322.281448,54.015625 323.845014,51.203125 326.972148,48.796875 C330.099281,46.390625 334.416593,44.046875 339.924082,41.765625 L347.158495,38.8125 L347.158495,36.9375 C347.158495,34.28125 346.987358,32.359375 346.645085,31.171875 C346.302812,29.984375 345.416013,28.921875 343.984688,27.984375 C342.553363,27.046875 340.67086,26.578125 338.337178,26.578125 C333.669814,26.578125 331.071649,28.140625 330.542681,31.265625 C330.044829,34.453125 328.737967,36.046875 326.622096,36.046875 C324.724034,36.046875 323.775004,35.140625 323.775004,33.328125 C323.775004,31.546875 325.035192,29.6328125 327.555568,27.5859375 C330.075945,25.5390625 333.99653,24.515625 339.317324,24.515625 C343.269025,24.515625 346.333927,25.140625 348.51203,26.390625 C350.690133,27.640625 352.129237,29.0625 352.829342,30.65625 C353.529446,32.25 353.879498,34.6875 353.879498,37.96875 L353.879498,53.484375 C353.879498,57.109375 354.066193,59.4375 354.439582,60.46875 C354.812971,61.5 355.621981,62.015625 356.866611,62.015625 C358.920251,62.015625 360.195997,60.484375 360.693849,57.421875 Z M347.158495,41.015625 L342.071069,43.078125 C334.043204,46.359375 330.029271,50.484375 330.029271,55.453125 C330.029271,57.421875 330.542681,59.0078125 331.569501,60.2109375 C332.596321,61.4140625 333.934298,62.015625 335.583433,62.015625 C337.045874,62.015625 338.741683,61.53125 340.67086,60.5625 C342.600037,59.59375 344.762582,58.140625 347.158495,56.203125 L347.158495,41.015625 Z" id="Shape"></path>
                    <path d="M379.316629,34.3125 C380.374565,31.53125 382.09371,29.203125 384.474066,27.328125 C386.854421,25.453125 389.180324,24.515625 391.451774,24.515625 C393.505414,24.515625 395.123433,25.15625 396.305832,26.4375 C397.488231,27.71875 398.07943,29.03125 398.07943,30.375 C398.07943,31.28125 397.776052,32.0625 397.169294,32.71875 C396.562537,33.375 395.823538,33.703125 394.952297,33.703125 C393.396509,33.703125 392.21411,32.546875 391.405101,30.234375 C390.845017,28.671875 390.004892,27.890625 388.884724,27.890625 C387.546747,27.890625 385.944285,28.8046875 384.07734,30.6328125 C382.210395,32.4609375 381.012438,34.359375 380.48347,36.328125 C379.954502,38.296875 379.690018,41 379.690018,44.4375 L379.690018,51.28125 C379.690018,55.375 379.744471,57.953125 379.853376,59.015625 C379.962281,60.078125 380.405681,60.890625 381.183575,61.453125 C381.961468,62.015625 383.34612,62.296875 385.337528,62.296875 L386.64439,62.296875 L386.64439,64.453125 L366.341359,64.453125 L366.341359,62.296875 L367.321505,62.296875 C369.18845,62.296875 370.518649,62.0390625 371.312101,61.5234375 C372.105553,61.0078125 372.580068,60.28125 372.735647,59.34375 C372.891225,58.40625 372.969015,55.71875 372.969015,51.28125 L372.969015,40.453125 C372.969015,36.328125 372.914562,33.7421875 372.805657,32.6953125 C372.696752,31.6484375 372.253352,30.8359375 371.475459,30.2578125 C370.697565,29.6796875 369.312913,29.390625 367.321505,29.390625 L366.341359,29.390625 L366.341359,27.28125 C369.26624,26.9375 373.093478,26.015625 377.823073,24.515625 C378.72543,26.984375 379.223282,30.25 379.316629,34.3125 Z" id="Path"></path>
                    <path d="M439.80566,26.0625 L439.80566,51.234375 C439.80566,55.421875 439.867891,58.046875 439.992354,59.109375 C440.116817,60.171875 440.575775,60.96875 441.369227,61.5 C442.162678,62.03125 443.586224,62.296875 445.639864,62.296875 L445.639864,64.453125 C440.910269,64.515625 437.45642,65.015625 435.278317,65.953125 L434.718234,65.953125 C433.722529,64.234375 433.193562,61.265625 433.13133,57.046875 C431.233269,60.015625 429.062945,62.25 426.620358,63.75 C424.177771,65.25 421.478479,66 418.522482,66 C415.97099,66 413.715098,65.4140625 411.754805,64.2421875 C409.794513,63.0703125 408.448756,61.640625 407.717536,59.953125 C406.986316,58.265625 406.620705,55.71875 406.620705,52.3125 L406.620705,39.234375 C406.620705,34.796875 406.542916,32.0859375 406.387337,31.1015625 C406.231759,30.1171875 405.741685,29.390625 404.917118,28.921875 C404.09255,28.453125 402.575657,28.21875 400.366438,28.21875 L400.366438,26.0625 L413.341709,26.0625 L413.341709,52.6875 C413.341709,55.3125 413.497288,57.21875 413.808445,58.40625 C414.119603,59.59375 414.913055,60.6328125 416.188801,61.5234375 C417.464547,62.4140625 418.942545,62.859375 420.622796,62.859375 C423.018709,62.859375 425.305717,62.0703125 427.48382,60.4921875 C429.661923,58.9140625 431.147701,57.2421875 431.941152,55.4765625 C432.734604,53.7109375 433.13133,51.1875 433.13133,47.90625 L433.13133,39.234375 C433.13133,35.046875 433.084656,32.5 432.991309,31.59375 C432.897962,30.6875 432.501236,29.8984375 431.801131,29.2265625 C431.101027,28.5546875 429.646365,28.21875 427.437147,28.21875 L426.457,28.21875 L426.457,26.0625 L439.80566,26.0625 Z" id="Path"></path>
                </g>
                <ellipse id="Oval" fill="#A984F2" cx="18.9694224" cy="45.2327586" rx="18.9694224" ry="19.0603448"></ellipse>
            </g>
        </g>
    </g>
</svg>